<?xml version="1.0" encoding="UTF-8"?>
<!DOCTYPE svg PUBLIC "-//W3C//DTD SVG 1.1//EN" "http://www.w3.org/Graphics/SVG/1.1/DTD/svg11.dtd">
<!-- Creator: CorelDRAW 2018 (64-Bit Evaluation Version) -->
<svg xmlns="http://www.w3.org/2000/svg" xml:space="preserve" width="98.2488mm" height="82.3308mm" version="1.1" style="shape-rendering:geometricPrecision; text-rendering:geometricPrecision; image-rendering:optimizeQuality; fill-rule:evenodd; clip-rule:evenodd"
viewBox="0 0 488.14 409.05"
 xmlns:xlink="http://www.w3.org/1999/xlink">
 <defs>
  <style type="text/css">
   <![CDATA[
    .fil0 {fill:none}
    .fil6 {fill:#2F2E41}
    .fil4 {fill:#3AD29F}
    .fil1 {fill:#3F3D56}
    .fil5 {fill:#A0616A}
    .fil7 {fill:#CCCCCC}
    .fil3 {fill:#E6E6E6}
    .fil2 {fill:#FFD865}
   ]]>
  </style>
 </defs>
 <g id="Layer_x0020_1">
  <metadata id="CorelCorpID_0Corel-Layer"/>
  <rect class="fil0" x="0" y="0" width="488.14" height="409.05"/>
  <path class="fil1" d="M469.64 264.2l-234.72 0c-2.52,-0 -4.56,-2.05 -4.56,-4.56l0 -243.1c0,-2.52 2.05,-4.56 4.56,-4.56l234.72 -0c2.52,0 4.56,2.05 4.56,4.56l0 243.1c-0,2.52 -2.05,4.56 -4.56,4.56l0 0zm-234.72 -250.64c-1.64,0 -2.97,1.33 -2.97,2.97l0 243.1c0,1.64 1.33,2.97 2.97,2.97l234.72 0c1.64,-0 2.97,-1.33 2.97,-2.97l0 -243.1c-0,-1.64 -1.33,-2.97 -2.97,-2.97l-234.72 0z"/>
  <path class="fil2" d="M396.52 114.14c3.98,7.35 6.07,15.59 6.07,23.95 0,27.78 -22.53,50.3 -50.3,50.3 -27.78,0 -50.3,-22.53 -50.3,-50.3 0,-27.78 22.52,-50.3 50.3,-50.3 0.4,0 0.8,0.01 1.19,0.01l-0.53 -21.49c-0.22,-0 -0.44,-0.01 -0.66,-0.01 -39.61,0.01 -71.74,32.14 -71.74,71.76 0,39.62 32.13,71.76 71.76,71.76 39.62,0 71.76,-32.13 71.76,-71.76 0,-13.01 -3.54,-25.77 -10.23,-36.93l-17.3 13z"/>
  <path class="fil3" d="M396.52 114.14l17.3 -13c-12.85,-21.41 -35.92,-34.61 -60.89,-34.82l0.53 21.49c18.04,0.42 34.47,10.48 43.05,26.34l0 -0z"/>
  <rect class="fil1" transform="matrix(0.43 -0.425982 0.425982 0.43 387.928 200.58)" width="2.06" height="59.17"/>
  <rect class="fil1" transform="matrix(0.296092 -0.527912 0.527912 0.296092 387.478 75.189)" width="59.17" height="2.07"/>
  <path class="fil2" d="M432.44 235.41l-37.2 0c-1.38,-0 -2.49,-1.12 -2.49,-2.49l0 -5.24c0,-1.38 1.12,-2.49 2.49,-2.49l37.2 0c1.38,0 2.49,1.12 2.49,2.49l0 5.24c-0,1.38 -1.12,2.49 -2.49,2.49l0 0z"/>
  <path class="fil3" d="M423.01 44.7l-37.2 0c-1.38,-0 -2.49,-1.12 -2.49,-2.49l0 -5.24c0,-1.38 1.12,-2.49 2.49,-2.49l37.2 0c1.38,0 2.49,1.12 2.49,2.49l0 5.24c-0,1.38 -1.12,2.49 -2.49,2.49z"/>
  <path class="fil1" d="M192.84 128.04l-174.55 0c-2.4,-0 -4.35,-1.95 -4.35,-4.35l-0 -106.58c0,-2.4 1.95,-4.35 4.35,-4.35l174.55 0c2.4,0 4.35,1.95 4.35,4.35l0 106.57c-0,2.4 -1.95,4.35 -4.35,4.35l0 0zm-174.55 -113.68c-1.52,0 -2.76,1.24 -2.76,2.76l-0 106.57c0,1.52 1.24,2.76 2.76,2.76l174.55 0c1.52,-0 2.75,-1.24 2.76,-2.76l0 -106.58c-0,-1.52 -1.24,-2.76 -2.76,-2.76l-174.55 0z"/>
  <path class="fil3" d="M117.03 101.59l-25.7 0c-1.36,-0 -2.51,-0.99 -2.73,-2.32 -0.84,-5.44 -1.26,-10.93 -1.26,-16.43 0,-5.5 0.42,-10.99 1.25,-16.42 0.22,-1.34 1.38,-2.33 2.74,-2.33l25.7 0c0,-0 0.01,-0 0.01,-0 0.84,0 1.64,0.39 2.15,1.05 0.39,0.49 0.6,1.1 0.6,1.73 0,0.22 -0.03,0.45 -0.08,0.66 -1.19,5.01 -1.8,10.16 -1.8,15.32 0,5.15 0.61,10.31 1.8,15.32 0.05,0.22 0.08,0.44 0.08,0.66 0,0.63 -0.21,1.24 -0.6,1.73 -0.52,0.66 -1.31,1.05 -2.15,1.05 -0,0 -0.01,0 -0.01,0l-0 0z"/>
  <path class="fil2" d="M74.18 76.72l-25.7 0c-0,0 -0.01,0 -0.01,0 -0.84,0 -1.64,-0.39 -2.15,-1.05 -0.39,-0.49 -0.6,-1.1 -0.6,-1.73 0,-0.22 0.03,-0.45 0.08,-0.66 1.19,-5.01 1.8,-10.16 1.8,-15.32 0,-5.15 -0.61,-10.31 -1.8,-15.32 -0.05,-0.22 -0.08,-0.44 -0.08,-0.66 0,-0.63 0.21,-1.24 0.6,-1.73 0.52,-0.66 1.31,-1.05 2.15,-1.05 0,0 0.01,0 0.01,0l25.7 0c1.36,0 2.51,0.99 2.73,2.32 0.84,5.44 1.26,10.93 1.26,16.43 0,5.5 -0.42,10.99 -1.25,16.42 -0.22,1.34 -1.38,2.33 -2.74,2.33l0 0z"/>
  <path class="fil4" d="M158.85 76.72l-25.7 0c-0,0 -0.01,0 -0.01,0 -0.84,0 -1.64,-0.39 -2.15,-1.05 -0.39,-0.49 -0.6,-1.1 -0.6,-1.73 0,-0.22 0.03,-0.45 0.08,-0.66 1.19,-5.01 1.8,-10.16 1.8,-15.32 0,-5.15 -0.61,-10.31 -1.8,-15.32 -0.05,-0.22 -0.08,-0.44 -0.08,-0.66 0,-0.63 0.21,-1.24 0.6,-1.73 0.52,-0.66 1.31,-1.05 2.15,-1.05 0,0 0.01,0 0.01,0l25.7 0c1.36,0 2.51,0.99 2.73,2.32 0.84,5.44 1.26,10.93 1.26,16.43 0,5.5 -0.42,10.99 -1.25,16.42 -0.22,1.34 -1.38,2.33 -2.74,2.33l-0 0z"/>
  <path class="fil5" d="M163.48 266.16c-3.98,-0.81 -6.84,-4.31 -6.84,-8.38 0,-1.08 0.21,-2.15 0.6,-3.15l-35.28 -75.74 17.9 -5.03 29.08 76.13c2.99,1.42 4.9,4.45 4.9,7.76 0,4.75 -3.85,8.59 -8.59,8.59 -0.59,0 -1.19,-0.06 -1.77,-0.18l0 0z"/>
  <polygon class="fil5" points="95.16,387.03 104.92,387.03 109.56,349.4 95.16,349.4 "/>
  <path class="fil6" d="M123.73 396.08l-30.66 0 -0 -11.85 18.81 -0c6.54,0 11.85,5.3 11.85,11.84l0 0 0 0z"/>
  <polygon class="fil5" points="44.46,376.51 53.42,380.35 72.5,347.59 59.27,341.92 "/>
  <path class="fil6" d="M67.15 396.08l-28.18 -12.07 4.66 -10.89 17.29 7.41c6.01,2.58 8.8,9.54 6.22,15.55l0 0 0 0z"/>
  <circle class="fil5" cx="119.28" cy="123.82" r="19.54"/>
  <path class="fil6" d="M105.16 377.83l-10.74 -2.05c-1.69,-0.31 -2.91,-1.78 -2.91,-3.5 0,-0.13 0.01,-0.26 0.02,-0.38l7.12 -69.43c0.01,-0.09 0.01,-0.19 0.01,-0.28 0,-1.54 -1.25,-2.78 -2.78,-2.78 -1.11,0 -2.12,0.66 -2.56,1.69l-31.09 72.54c-0.56,1.32 -1.86,2.17 -3.29,2.17 -0.5,0 -1,-0.11 -1.45,-0.31l-8.73 -3.88c-1.29,-0.57 -2.13,-1.85 -2.13,-3.26 0,-0.39 0.06,-0.77 0.19,-1.14l21.26 -63.79c0.06,-0.18 0.1,-0.36 0.12,-0.55l6.9 -58.28c0.15,-1.3 1,-2.41 2.21,-2.9l21.79 -8.85c0.43,-0.17 0.89,-0.26 1.35,-0.26 0.93,0 1.83,0.36 2.5,1.02l27.51 26.78c0.69,0.67 1.08,1.6 1.08,2.56 0,0.24 -0.02,0.47 -0.07,0.7l-22.12 111.38c-0.34,1.67 -1.81,2.88 -3.51,2.88 -0,0 -0,0 -0,0 -0.22,0 -0.45,-0.02 -0.67,-0.06l-0 0z"/>
  <path class="fil7" d="M92.92 247.8c-3.81,-4.41 -6.59,-6.41 -8.49,-6.09 -1.89,0.31 -2.97,2.94 -4.12,5.73 -1.57,3.81 -3.35,8.12 -7.75,8.46 -0.21,0.03 -0.42,0.05 -0.63,0.05 -1.19,0 -2.31,-0.57 -3,-1.54 -3.45,-5.14 4.83,-22.14 5.59,-23.67l-0.39 -80.41c0,-0.01 0,-0.02 0,-0.03 0,-1.31 0.72,-2.52 1.87,-3.14 22.77,-12.28 53.51,9.08 59.45,13.48l-0 0c0.91,0.67 1.45,1.74 1.45,2.87 0,0.06 -0,0.13 -0,0.19 -0.72,13.47 -4.29,81.41 -4.29,96.57 0,4.2 -1.45,6.86 -4.3,7.92 -0.92,0.33 -1.89,0.49 -2.87,0.49 -0.04,0 -0.09,-0 -0.14,-0 -8.71,0 -22.97,-9.99 -32.38,-20.89z"/>
  <path class="fil7" d="M124.69 208.75c-0.96,-0.63 -1.57,-1.69 -1.61,-2.84l-1.54 -36.02c-0,-0.13 -0.01,-0.27 -0.01,-0.4 0,-5.16 4.19,-9.35 9.35,-9.35 3.88,0 7.35,2.39 8.73,6.02l11.54 30.25c0.15,0.41 0.23,0.84 0.23,1.27 0,1.48 -0.92,2.82 -2.3,3.35l-21.15 8.07c-0.41,0.16 -0.84,0.24 -1.28,0.24 -0.7,0 -1.38,-0.21 -1.96,-0.59l-0 0z"/>
  <path class="fil5" d="M70.95 265.03c-2.36,-1.59 -3.78,-4.25 -3.78,-7.09 0,-2.22 0.86,-4.35 2.4,-5.94l-3.73 -83.47 18.46 2.17 -2.14 81.46c1.43,1.58 2.22,3.64 2.22,5.77 0,4.75 -3.85,8.59 -8.59,8.59 -1.73,0 -3.42,-0.52 -4.84,-1.49l0 0z"/>
  <path class="fil7" d="M58.13 190.75c-0.44,-0.61 -0.68,-1.34 -0.68,-2.09 0,-0.39 0.06,-0.77 0.19,-1.14l11.4 -34.2c1.27,-3.82 4.84,-6.39 8.87,-6.39 5.16,0 9.35,4.19 9.35,9.35 0,0 0,0 0,0l0 32.38c-0,1.98 -1.6,3.58 -3.58,3.58l-22.64 0c-0.01,-0 -0.01,-0 -0.02,-0 -1.15,0 -2.22,-0.55 -2.89,-1.49l-0 0z"/>
  <path class="fil6" d="M106.66 136.97c-0.68,0.53 -1.52,0.82 -2.38,0.82 -1,0 -1.95,-0.39 -2.67,-1.07 -4.19,-3.92 -7.72,-8.6 -9.51,-14.02 -2.05,-6.21 -1.53,-13.49 2.4,-18.72 3.32,-4.42 8.57,-6.92 13.75,-8.88 2.02,-0.85 4.16,-1.41 6.33,-1.64 0.3,-0.03 0.6,-0.05 0.9,-0.05 1.9,0 3.76,0.63 5.27,1.78 1.3,1.04 2.05,2.61 2.05,4.27 0,0.55 -0.08,1.09 -0.24,1.62 2.65,-2.41 5.89,-4.09 9.39,-4.86 0.95,-0.25 1.93,-0.38 2.91,-0.38 1.3,0 2.59,0.22 3.81,0.66 3,1.23 4.95,4.25 5.85,7.37 0.4,1.28 0.6,2.62 0.6,3.97 0,1.13 -0.15,2.26 -0.43,3.36 -0.65,2.42 -2.3,4.46 -4.54,5.6 -2.75,1.29 -6,0.8 -8.87,-0.18 -2.87,-0.98 -5.59,-2.44 -8.56,-3.07 -2.97,-0.63 -6.4,-0.26 -8.5,1.93 -1.48,1.54 -2.06,3.71 -2.59,5.78l-2.75 10.77c-0.3,1.57 -0.89,3.07 -1.72,4.43 -0.14,0.19 -0.3,0.37 -0.49,0.52l-0 0z"/>
  <path class="fil2" d="M185.91 292.35l-25.7 0c-1.36,-0 -2.51,-0.99 -2.73,-2.32 -0.84,-5.44 -1.26,-10.93 -1.26,-16.43 0,-5.5 0.42,-10.99 1.25,-16.42 0.22,-1.34 1.38,-2.33 2.74,-2.33l25.7 0c0,-0 0.01,-0 0.01,-0 0.84,0 1.64,0.39 2.15,1.05 0.39,0.49 0.6,1.1 0.6,1.73 0,0.22 -0.03,0.45 -0.08,0.66 -1.19,5.01 -1.8,10.16 -1.8,15.32 0,5.15 0.61,10.31 1.8,15.32 0.05,0.22 0.08,0.44 0.08,0.66 0,0.63 -0.21,1.24 -0.6,1.73 -0.52,0.66 -1.31,1.05 -2.15,1.05 -0,0 -0.01,0 -0.01,0l0 0z"/>
  <path class="fil1" d="M142.84 397.08l-128.1 0c-0.44,-0 -0.79,-0.36 -0.79,-0.8 0,-0.44 0.36,-0.8 0.8,-0.8l128.1 0c0.44,-0 0.8,0.36 0.8,0.79 0,0.44 -0.36,0.8 -0.8,0.8l0 0z"/>
 </g>
</svg>
